<?xml version="1.0" encoding="UTF-8" standalone="no"?>
<!DOCTYPE svg PUBLIC "-//W3C//DTD SVG 1.1//EN"
 "http://www.w3.org/Graphics/SVG/1.1/DTD/svg11.dtd">
<!-- Generated by graphviz version 11.0.1~dev.20240512.0604 (20240512.0604)
 -->
<!-- Title: ER Pages: 1 -->
<svg width="333pt" height="437pt"
 viewBox="0.00 0.00 332.84 437.00" xmlns="http://www.w3.org/2000/svg" xmlns:xlink="http://www.w3.org/1999/xlink">
<g id="graph0" class="graph" transform="scale(1 1) rotate(0) translate(4 433)">
<title>ER</title>
<polygon fill="white" stroke="none" points="-4,4 -4,-433 328.84,-433 328.84,4 -4,4"/>
<text text-anchor="middle" x="162.42" y="-7.4" font-family="Times,serif" font-size="17.00">Client Portfolio</text>
<g id="clust2" class="cluster">
<title>cluster1</title>
<polygon fill="#ff0000" fill-opacity="0.501961" stroke="#ff0000" stroke-opacity="0.501961" points="34,-275 34,-421 248,-421 248,-275 34,-275"/>
<text text-anchor="middle" x="141" y="-405.8" font-family="Times,serif" font-size="14.00">Existing System (Employer)</text>
</g>
<!-- Client -->
<g id="node1" class="node">
<title>Client</title>
<polygon fill="none" stroke="black" points="89,-153 35,-153 35,-117 89,-117 89,-153"/>
<text text-anchor="middle" x="62" y="-131.7" font-family="Times,serif" font-size="11.00">Client</text>
</g>
<!-- NI -->
<g id="node7" class="node">
<title>NI</title>
<ellipse fill="none" stroke="black" cx="27" cy="-63" rx="27" ry="18"/>
<text text-anchor="middle" x="27" y="-59.7" font-family="Times,serif" font-size="11.00">NI</text>
</g>
<!-- Client&#45;&#45;NI -->
<g id="edge8" class="edge">
<title>Client&#45;&#45;NI</title>
<path fill="none" stroke="black" d="M53.35,-116.7C47.84,-105.68 40.75,-91.5 35.31,-80.62"/>
</g>
<!-- dob -->
<g id="node13" class="node">
<title>dob</title>
<ellipse fill="none" stroke="black" cx="99" cy="-63" rx="27" ry="18"/>
<text text-anchor="middle" x="99" y="-59.7" font-family="Times,serif" font-size="11.00">dob</text>
</g>
<!-- Client&#45;&#45;dob -->
<g id="edge9" class="edge">
<title>Client&#45;&#45;dob</title>
<path fill="none" stroke="black" d="M71.15,-116.7C77.05,-105.52 84.69,-91.08 90.47,-80.14"/>
</g>
<!-- Fund -->
<g id="node2" class="node">
<title>Fund</title>
<polygon fill="none" stroke="black" points="168,-319 114,-319 114,-283 168,-283 168,-319"/>
<text text-anchor="middle" x="141" y="-297.7" font-family="Times,serif" font-size="11.00">Fund</text>
</g>
<!-- C&#45;F&#45;P -->
<g id="node14" class="node">
<title>C&#45;F&#45;P</title>
<polygon fill="lightgrey" stroke="lightgrey" points="141,-236 105.29,-218 141,-200 176.71,-218 141,-236"/>
<text text-anchor="middle" x="141" y="-214.7" font-family="Times,serif" font-size="11.00">C&#45;F&#45;P</text>
</g>
<!-- Fund&#45;&#45;C&#45;F&#45;P -->
<g id="edge4" class="edge">
<title>Fund&#45;&#45;C&#45;F&#45;P</title>
<path fill="none" stroke="black" d="M141,-282.82C141,-269.17 141,-250.15 141,-236.43"/>
<text text-anchor="middle" x="143.75" y="-256.2" font-family="Times,serif" font-size="11.00">1</text>
</g>
<!-- Portfolio -->
<g id="node3" class="node">
<title>Portfolio</title>
<polygon fill="none" stroke="black" points="249.56,-153 194.44,-153 194.44,-117 249.56,-117 249.56,-153"/>
<text text-anchor="middle" x="222" y="-131.7" font-family="Times,serif" font-size="11.00">Portfolio</text>
</g>
<!-- name2 -->
<g id="node6" class="node">
<title>name2</title>
<ellipse fill="none" stroke="black" cx="176" cy="-63" rx="27" ry="18"/>
<text text-anchor="middle" x="176" y="-59.7" font-family="Times,serif" font-size="11.00">name</text>
</g>
<!-- Portfolio&#45;&#45;name2 -->
<g id="edge11" class="edge">
<title>Portfolio&#45;&#45;name2</title>
<path fill="none" stroke="black" d="M210.63,-116.7C203.18,-105.36 193.52,-90.66 186.3,-79.67"/>
</g>
<!-- openedAt -->
<g id="node12" class="node">
<title>openedAt</title>
<ellipse fill="none" stroke="black" cx="256" cy="-63" rx="34.59" ry="18"/>
<text text-anchor="middle" x="256" y="-59.7" font-family="Times,serif" font-size="11.00">openedAt</text>
</g>
<!-- Portfolio&#45;&#45;openedAt -->
<g id="edge13" class="edge">
<title>Portfolio&#45;&#45;openedAt</title>
<path fill="none" stroke="black" d="M230.4,-116.7C235.75,-105.68 242.64,-91.5 247.93,-80.62"/>
</g>
<!-- name0 -->
<g id="node4" class="node">
<title>name0</title>
<ellipse fill="none" stroke="black" cx="60" cy="-218" rx="27" ry="18"/>
<text text-anchor="middle" x="60" y="-214.7" font-family="Times,serif" font-size="11.00">name</text>
</g>
<!-- name0&#45;&#45;Client -->
<g id="edge7" class="edge">
<title>name0&#45;&#45;Client</title>
<path fill="none" stroke="black" d="M60.42,-199.82C60.76,-186.17 61.23,-167.15 61.57,-153.43"/>
</g>
<!-- name1 -->
<g id="node5" class="node">
<title>name1</title>
<ellipse fill="none" stroke="black" cx="69" cy="-373" rx="27" ry="18"/>
<text text-anchor="middle" x="69" y="-369.7" font-family="Times,serif" font-size="11.00">name</text>
</g>
<!-- name1&#45;&#45;Fund -->
<g id="edge1" class="edge">
<title>name1&#45;&#45;Fund</title>
<path fill="none" stroke="black" d="M83.92,-357.5C95.29,-346.44 110.99,-331.18 123.04,-319.46"/>
</g>
<!-- type -->
<g id="node8" class="node">
<title>type</title>
<ellipse fill="none" stroke="black" cx="141" cy="-373" rx="27" ry="18"/>
<text text-anchor="middle" x="141" y="-369.7" font-family="Times,serif" font-size="11.00">type</text>
</g>
<!-- type&#45;&#45;Fund -->
<g id="edge2" class="edge">
<title>type&#45;&#45;Fund</title>
<path fill="none" stroke="black" d="M141,-354.7C141,-343.85 141,-329.92 141,-319.1"/>
</g>
<!-- sector -->
<g id="node9" class="node">
<title>sector</title>
<ellipse fill="none" stroke="black" cx="213" cy="-373" rx="27" ry="18"/>
<text text-anchor="middle" x="213" y="-369.7" font-family="Times,serif" font-size="11.00">sector</text>
</g>
<!-- sector&#45;&#45;Fund -->
<g id="edge3" class="edge">
<title>sector&#45;&#45;Fund</title>
<path fill="none" stroke="black" d="M198.08,-357.5C186.71,-346.44 171.01,-331.18 158.96,-319.46"/>
</g>
<!-- state -->
<g id="node10" class="node">
<title>state</title>
<ellipse fill="none" stroke="black" cx="222" cy="-218" rx="27" ry="18"/>
<text text-anchor="middle" x="222" y="-214.7" font-family="Times,serif" font-size="11.00">state</text>
</g>
<!-- state&#45;&#45;Portfolio -->
<g id="edge12" class="edge">
<title>state&#45;&#45;Portfolio</title>
<path fill="none" stroke="black" d="M222,-199.82C222,-186.17 222,-167.15 222,-153.43"/>
</g>
<!-- amount -->
<g id="node11" class="node">
<title>amount</title>
<ellipse fill="none" stroke="black" cx="296" cy="-218" rx="28.84" ry="18"/>
<text text-anchor="middle" x="296" y="-214.7" font-family="Times,serif" font-size="11.00">amount</text>
</g>
<!-- amount&#45;&#45;Portfolio -->
<g id="edge10" class="edge">
<title>amount&#45;&#45;Portfolio</title>
<path fill="none" stroke="black" d="M282.08,-201.76C269.52,-188.02 251.05,-167.8 237.91,-153.42"/>
</g>
<!-- C&#45;F&#45;P&#45;&#45;Client -->
<g id="edge5" class="edge">
<title>C&#45;F&#45;P&#45;&#45;Client</title>
<path fill="none" stroke="black" d="M129.68,-205.39C116.37,-191.75 94.15,-168.96 78.82,-153.25"/>
<text text-anchor="middle" x="108.75" y="-173.2" font-family="Times,serif" font-size="11.00">1</text>
</g>
<!-- C&#45;F&#45;P&#45;&#45;Portfolio -->
<g id="edge6" class="edge">
<title>C&#45;F&#45;P&#45;&#45;Portfolio</title>
<path fill="none" stroke="black" d="M152.61,-205.39C166.25,-191.75 189.04,-168.96 204.75,-153.25"/>
<text text-anchor="middle" x="188.75" y="-173.2" font-family="Times,serif" font-size="11.00">1</text>
</g>
</g>
</svg>
